<svg width="22" height="22" viewBox="0 0 22 22" fill="none" xmlns="http://www.w3.org/2000/svg">
<path d="M21.0833 2.75922C21.0833 2.75922 19.2335 3.85188 18.205 4.16172C17.6529 3.52694 16.9192 3.07702 16.1031 2.87282C15.287 2.66861 14.4279 2.71998 13.6419 3.01997C12.8559 3.31995 12.1811 3.85409 11.7086 4.55012C11.2361 5.24616 10.9887 6.07053 11 6.91172V7.82838C9.38907 7.87016 7.79282 7.51288 6.35341 6.78838C4.914 6.06387 3.67611 4.99463 2.74999 3.67588C2.74999 3.67588 -0.916677 11.9259 7.33332 15.5926C5.44547 16.874 3.19655 17.5166 0.916656 17.4259C9.16666 22.0092 19.25 17.4259 19.25 6.88422C19.25 6.62938 19.2243 6.37455 19.1767 6.12338C20.1117 5.20122 21.0833 2.75922 21.0833 2.75922Z" stroke="#FCF8F3" stroke-width="1.5" stroke-linecap="round" stroke-linejoin="round"/>
</svg>
